<?xml version="1.0" encoding="UTF-8"?>
<svg version="1.1" xmlns="http://www.w3.org/2000/svg" width="8859" height="7546">
<path d="M0 0 C2923.47 0 5846.94 0 8859 0 C8859 2490.18 8859 4980.36 8859 7546 C5935.53 7546 3012.06 7546 0 7546 C0 5055.82 0 2565.64 0 0 Z " fill="#432C39" transform="translate(0,0)"/>
<path d="M0 0 C3.29280334 0.00544772 6.58559948 0.00780981 9.87840652 0.00987244 C43.05108374 0.04222934 76.03380924 0.63025738 109.11226273 3.31785583 C111.16661069 3.48014268 113.22097291 3.6422492 115.27534866 3.80418396 C136.07035906 5.46219073 156.83946134 7.40891366 177.54097366 9.99754333 C180.06625564 10.31212461 182.59277917 10.61368483 185.12007523 10.91160583 C195.68609881 12.1758012 195.68609881 12.1758012 199.11226273 13.31785583 C200.6512558 13.47232726 202.19379548 13.59250657 203.73726273 13.69285583 C209.17888143 14.1528106 214.49260935 15.04187298 219.85567093 16.03367615 C224.04191878 16.79860368 228.22615687 17.49386531 232.44038773 18.08738708 C249.01808993 20.44093424 265.34763786 23.71257015 281.73067093 27.14451599 C283.56355529 27.52801789 285.39648072 27.91132357 287.22945023 28.29441833 C288.54603119 28.56982704 288.54603119 28.56982704 289.88920975 28.85079956 C295.48159807 30.01005707 301.08112861 31.02061702 306.72261429 31.91453552 C310.05878949 32.47760882 313.27614564 33.27271925 316.54976273 34.13035583 C317.92446652 34.48437262 319.29948359 34.83717449 320.67476273 35.18894958 C321.75177444 35.46521179 321.75177444 35.46521179 322.85054398 35.74705505 C326.90693379 36.77078556 330.97871628 37.72939655 335.04976273 38.69285583 C336.34853348 39.00162659 336.34853348 39.00162659 337.67354202 39.31663513 C341.56311747 40.24111699 345.45326887 41.16298581 349.34517288 42.07762146 C352.68503347 42.86255443 356.02367688 43.65252089 359.36226273 44.44285583 C360.91481766 44.80516296 360.91481766 44.80516296 362.49873734 45.17478943 C367.80931743 46.43586339 372.98272023 47.85387273 378.14107132 49.6391449 C380.83453043 50.5665435 383.5593377 51.35396116 386.29976273 52.13035583 C388.10380569 52.64275818 388.10380569 52.64275818 389.94429398 53.16551208 C392.97668021 54.01215491 396.01693244 54.82470087 399.06148148 55.62644958 C410.01170978 58.52592406 420.7657807 61.77204323 431.48945999 65.42405701 C437.26743307 67.38769262 443.05185256 69.22367963 448.92476273 70.88035583 C455.72668363 72.81184624 462.32109748 75.16013937 468.93526077 77.65525818 C475.19774967 80.01146752 481.51071827 82.16209503 487.88740921 84.18870544 C491.53513644 85.36944537 495.02823596 86.68796353 498.51851273 88.27879333 C503.24168141 90.42989416 508.07161141 92.10289661 512.98726273 93.75535583 C519.38815083 95.94691002 525.5780868 98.28253129 531.68648148 101.20848083 C534.24791742 102.37989438 536.82852801 103.32727104 539.48726273 104.25535583 C544.78275335 106.12346632 549.80296148 108.43417494 554.88179398 110.82176208 C559.89475931 113.14336514 565.00403102 115.21651507 570.11226273 117.31785583 C589.22615974 125.21455844 589.22615974 125.21455844 596.62007523 129.05223083 C599.78799662 130.6610185 603.01131265 132.14284813 606.23726273 133.63035583 C611.92484028 136.26346732 617.5455342 139.0112463 623.13716507 141.8422699 C627.78214514 144.18181684 632.45840606 146.45124934 637.15132523 148.69285583 C637.78116318 148.99433029 638.41100113 149.29580475 639.05992508 149.60641479 C642.89098527 151.44020149 642.89098527 151.44020149 646.72706985 153.26344299 C654.15321641 156.78045947 661.35260691 160.4851193 668.39009476 164.73143005 C671.28206971 166.416816 674.23005021 167.91185224 677.23726273 169.38035583 C681.84130837 171.63454442 686.18693222 174.13303706 690.54976273 176.81785583 C693.3472047 178.45538285 696.20144807 179.8921507 699.11226273 181.31785583 C703.62839375 183.53871621 707.94281759 185.92741686 712.22945023 188.56004333 C716.59498492 191.22195474 721.01610536 193.78870842 725.43330765 196.36375427 C730.91097959 199.5724324 736.31759169 202.89105746 741.71944046 206.22557068 C744.98843385 208.24149306 748.26398573 210.2462492 751.54195023 212.24754333 C762.63261055 219.03020521 773.67639057 225.84248596 784.41890335 233.16893005 C786.82108589 234.79878459 789.24193569 236.400003 791.66182327 238.00340271 C824.84081705 260.00545626 856.9399201 283.55857328 888.11226273 308.31785583 C888.99913773 309.02168396 889.88601273 309.72551208 890.79976273 310.45066833 C899.73935736 317.57440781 908.56756258 324.82406261 917.27339554 332.23118591 C920.70210173 335.14314726 924.17168967 337.99523582 927.67476273 340.81785583 C932.15430825 344.45870561 936.39974234 348.29143717 940.62105179 352.22312927 C943.95365197 355.30887018 947.38374605 358.21954146 950.92476273 361.06785583 C954.62514137 364.0472438 958.04196645 367.11390732 961.33174515 370.53684998 C963.10020234 372.30579214 964.9312039 373.9408081 966.82710648 375.57176208 C970.96639301 379.16949077 974.99183631 382.87410608 978.98726273 386.63035583 C979.68271194 387.28262146 980.37816116 387.93488708 981.0946846 388.60691833 C985.73023667 392.97130998 990.27030874 397.40599278 994.70601273 401.97410583 C996.67769975 403.89458021 998.67923627 405.68595833 1000.76460648 407.47801208 C1005.79448813 411.8444323 1010.47740463 416.53675874 1015.17476273 421.25535583 C1016.03392288 422.1106488 1016.89308304 422.96594177 1017.77827835 423.84715271 C1022.16787427 428.24345542 1026.38665897 432.70994071 1030.43428421 437.4216156 C1033.34057815 440.70594341 1036.48244852 443.74852307 1039.61226273 446.81785583 C1043.98221506 451.14594227 1048.27392208 455.46391367 1052.24507523 460.16551208 C1054.95537121 463.28972356 1057.78893622 466.2959093 1060.61226273 469.31785583 C1064.62847228 473.62303795 1068.60356273 477.94754131 1072.44820023 482.40769958 C1074.42766398 484.67990094 1076.45809443 486.90245456 1078.48726273 489.13035583 C1082.35821227 493.41908071 1086.02598167 497.83894289 1089.65913773 502.32957458 C1092.44678604 505.72535636 1095.30430268 509.05463706 1098.17476273 512.38035583 C1102.18872565 517.03935298 1106.11643333 521.74504377 1109.92866898 526.57176208 C1112.19256083 529.41883897 1114.48929682 532.23692592 1116.79097366 535.05345154 C1122.21007605 541.68849817 1127.53954355 548.37710685 1132.72945023 555.19285583 C1134.30796535 557.26303961 1135.8964172 559.32568716 1137.49507523 561.38035583 C1142.97955878 568.43435398 1148.26625459 575.61209893 1153.4709053 582.87522888 C1156.50959831 587.1145924 1159.59376269 591.31295505 1162.73189163 595.47923279 C1172.68491494 608.73643451 1181.83654608 622.58479278 1191.11226273 636.31785583 C1191.61290237 637.05713318 1192.11354202 637.79641052 1192.62935257 638.55809021 C1221.72528761 681.55529567 1247.66935623 726.54933275 1272.11226273 772.31785583 C1273.04841398 774.0639746 1273.98460857 775.81007014 1274.92085648 777.55613708 C1275.73507345 779.08065516 1276.54890737 780.60537791 1277.36226273 782.13035583 C1277.72102493 782.79937927 1278.07978714 783.46840271 1278.44942093 784.15769958 C1280.2164249 787.48710248 1281.72719109 790.81670253 1283.11226273 794.31785583 C1284.2616784 796.66176231 1285.427056 798.9922722 1286.61226273 801.31785583 C1290.38272051 808.77325951 1293.98417686 816.30236945 1297.52241898 823.87059021 C1299.85128438 828.8137212 1302.35144373 833.59812328 1305.0387764 838.35520935 C1306.27617899 840.61754263 1307.27329955 842.90277311 1308.17476273 845.31785583 C1310.00010683 850.06081821 1312.01895478 854.68795119 1314.11226273 859.31785583 C1317.2436619 866.26525158 1320.19653206 873.27743301 1323.11226273 880.31785583 C1323.51445023 881.27691833 1323.91663773 882.23598083 1324.33101273 883.22410583 C1326.90797121 889.36916067 1329.4137062 895.54011074 1331.87276077 901.73313904 C1333.4851065 905.78407297 1335.15693158 909.80531196 1336.86226273 913.81785583 C1338.5944675 917.93665385 1339.89504337 922.01701411 1341.11226273 926.31785583 C1341.67887855 927.59623045 1342.26439598 928.86629472 1342.86226273 930.13035583 C1345.34502836 935.51433075 1347.10882588 941.12143303 1348.91792679 946.75852966 C1350.05237799 950.26477358 1351.22663786 953.69456192 1352.70601273 957.07176208 C1353.87265734 959.76476673 1354.77608301 962.30954844 1355.54976273 965.13035583 C1356.512765 968.45122449 1357.59550584 971.62654074 1358.92476273 974.81785583 C1365.44350259 990.67762523 1370.02598898 1007.40835239 1374.68599319 1023.88426208 C1376.61267821 1030.66195729 1378.65811998 1037.39807936 1380.73726273 1044.13035583 C1383.09214827 1051.77944589 1385.2337139 1059.42571856 1387.09151077 1067.2094574 C1387.91933262 1070.60524662 1388.83991103 1073.96672762 1389.79733658 1077.32797241 C1392.65123479 1087.34805424 1395.14974606 1097.4374177 1397.54219437 1107.57640076 C1398.17374807 1110.25105872 1398.811562 1112.92416731 1399.45015335 1115.59715271 C1404.4145974 1136.46973621 1408.61741641 1157.48022541 1412.5712471 1178.56492615 C1412.9299739 1180.47317141 1413.29063005 1182.38105506 1413.65327835 1184.28855896 C1415.65688427 1194.83116903 1417.50919175 1205.32907113 1418.71773148 1215.99485779 C1419.20510475 1220.09983157 1419.89816317 1224.15307648 1420.60835648 1228.22410583 C1421.4168132 1233.18765409 1422.02433994 1238.17573038 1422.64741898 1243.16551208 C1423.02120967 1246.33544457 1423.02120967 1246.33544457 1424.11226273 1249.31785583 C1424.45624393 1251.66745618 1424.76134102 1254.02281564 1425.04585648 1256.38035583 C1425.13137268 1257.08498962 1425.21688889 1257.78962341 1425.30499649 1258.51560974 C1425.57834502 1260.78254073 1425.84615538 1263.05006404 1426.11226273 1265.31785583 C1426.19856949 1266.050849 1426.28487625 1266.78384216 1426.37379837 1267.53904724 C1426.90077573 1272.03359795 1427.4136084 1276.52961113 1427.91719437 1281.02684021 C1428.08892907 1282.55438375 1428.26243237 1284.0817295 1428.43770218 1285.60887146 C1429.48783796 1294.76019424 1430.30579822 1303.86340467 1430.81604385 1313.06199646 C1431.07683277 1317.17892803 1431.54830703 1321.26266977 1432.04365921 1325.35691833 C1433.31888738 1336.44363623 1434.06058313 1347.55423697 1434.71382523 1358.69285583 C1434.77913059 1359.80233582 1434.84443596 1360.9118158 1434.91172028 1362.05491638 C1436.39334623 1387.91702034 1436.57325915 1413.75567188 1436.50337601 1439.65379333 C1436.48628607 1446.03891985 1436.49646648 1452.42367074 1436.51371193 1458.80878448 C1436.66411751 1524.82263191 1435.28300375 1595.10645855 1421.55904007 1660.01853943 C1420.94823495 1663.16201627 1420.58764105 1666.31480832 1420.22554398 1669.49510193 C1418.4535215 1685.02043524 1415.3859172 1700.29900789 1412.3911171 1715.62350464 C1411.38476607 1720.80496839 1410.46979938 1725.99792846 1409.58101273 1731.20066833 C1408.57229054 1737.07238294 1407.30932552 1742.82639616 1405.80025101 1748.58982849 C1404.91590221 1752.09646919 1404.24396869 1755.62526151 1403.5790596 1759.17893982 C1401.18256786 1771.97607307 1398.20010301 1784.61094408 1395.11226273 1797.25535583 C1394.9030217 1798.11591583 1394.69378067 1798.97647583 1394.47819901 1799.8631134 C1391.74563632 1811.07788636 1388.81342694 1822.22051434 1385.6728096 1833.32771301 C1384.85802035 1836.22050762 1384.06345528 1839.1187726 1383.26851273 1842.01707458 C1380.52037262 1851.97595316 1377.75581074 1861.8883437 1374.35054398 1871.64598083 C1371.77757693 1879.27559922 1369.50672047 1887.00404131 1367.18257523 1894.71238708 C1363.88287331 1905.62375866 1360.48446509 1916.41018921 1356.35445023 1927.03660583 C1354.99790781 1930.61992544 1353.86346985 1934.21821626 1352.85054398 1937.91160583 C1351.76735331 1941.44200503 1350.42667393 1944.86807759 1349.11226273 1948.31785583 C1348.63473324 1949.59223349 1348.15814841 1950.86696558 1347.68257523 1952.14207458 C1331.29688411 1995.96649332 1331.29688411 1995.96649332 1323.39741898 2012.57957458 C1320.79837463 2018.117356 1318.55216609 2023.8104806 1316.22945023 2029.46824646 C1312.37557965 2038.82876545 1308.38108245 2047.99295986 1303.75679398 2057.00144958 C1302.0944858 2060.35370526 1300.61842212 2063.74130359 1299.17476273 2067.19285583 C1295.84076038 2075.09241812 1292.08221688 2082.72217331 1288.11226273 2090.31785583 C1287.73585648 2091.04021423 1287.35945023 2091.76257263 1286.97163773 2092.50682068 C1265.26101823 2133.80222819 1231.40834488 2167.16143429 1188.11226273 2185.31785583 C1186.33335648 2186.07582458 1186.33335648 2186.07582458 1184.51851273 2186.84910583 C1177.76102444 2189.67532645 1171.05980712 2192.07099244 1163.89351273 2193.67723083 C1161.88219258 2194.14051244 1159.88805935 2194.68063806 1157.90913773 2195.26707458 C1153.26364844 2196.55270897 1148.59552119 2197.48219784 1143.86226273 2198.38035583 C1142.98441116 2198.55373474 1142.1065596 2198.72711365 1141.20210648 2198.90574646 C1106.0111477 2205.62964122 1068.51348288 2200.68140971 1035.11226273 2188.31785583 C1034.14933304 2187.96336365 1033.18640335 2187.60887146 1032.19429398 2187.24363708 C1018.06470615 2181.68924739 1004.42263685 2174.17296829 992.11226273 2165.31785583 C991.53508499 2164.91969666 990.95790726 2164.52153748 990.36323929 2164.11131287 C964.52117403 2146.27312825 946.04560112 2122.4420075 930.83882523 2095.37644958 C929.79510443 2093.52750528 928.71590402 2091.69716212 927.57320023 2089.90769958 C925.67691332 2086.54610006 924.41343754 2083.06852525 923.11226273 2079.44285583 C921.6863244 2075.51409868 920.24891022 2071.63113672 918.57710648 2067.79832458 C917.01316326 2064.08239551 915.82153063 2060.36402439 914.67476273 2056.50535583 C913.31391746 2052.03050429 911.92300795 2047.63578677 910.11226273 2043.31785583 C908.04383929 2038.38032892 906.52490952 2033.31576227 904.96773148 2028.20066833 C903.82890589 2024.49773851 902.61078804 2020.89498078 901.11226273 2017.31785583 C899.32798983 2013.05862375 897.95572462 2008.73041571 896.61226273 2004.31785583 C895.00794757 1999.0533929 893.23678881 1993.96221901 891.12398148 1988.87644958 C889.70308598 1985.28306522 888.5157723 1981.62129551 887.31270218 1977.95018005 C885.21404611 1971.56822041 883.00826598 1965.22502087 880.79976273 1958.88035583 C877.39210661 1949.08637306 874.0669152 1939.26870605 870.8512764 1929.40989685 C869.09412335 1924.070909 867.15202551 1918.86151172 865.02949905 1913.65769958 C863.69931728 1910.26444377 862.64535449 1906.81068988 861.61226273 1903.31785583 C860.27262048 1898.90443322 858.89632558 1894.57658652 857.11226273 1890.31785583 C855.04383929 1885.38032892 853.52490952 1880.31576227 851.96773148 1875.20066833 C850.82890589 1871.49773851 849.61078804 1867.89498078 848.11226273 1864.31785583 C846.32799598 1860.05863843 844.95562003 1855.73043617 843.61226273 1851.31785583 C842.28997212 1846.97561122 840.94154087 1842.69137376 839.17476273 1838.50535583 C836.80759264 1832.86648724 835.0806408 1827.0261298 833.30586624 1821.17991638 C832.20178156 1817.58359633 831.06688629 1814.07559948 829.54976273 1810.63035583 C828.16966034 1807.4501199 827.13994227 1804.33170421 826.17476273 1801.00535583 C824.99841067 1797.08418231 823.75637424 1793.28081557 822.17476273 1789.50535583 C820.37587987 1785.18098255 818.9743498 1780.79343271 817.61226273 1776.31785583 C816.26898727 1771.9052545 814.89652531 1767.5770633 813.11226273 1763.31785583 C811.04383929 1758.38032892 809.52490952 1753.31576227 807.96773148 1748.20066833 C806.82890589 1744.49773851 805.61078804 1740.89498078 804.11226273 1737.31785583 C802.04383929 1732.38032892 800.52490952 1727.31576227 798.96773148 1722.20066833 C797.82890589 1718.49773851 796.61078804 1714.89498078 795.11226273 1711.31785583 C793.04383929 1706.38032892 791.52490952 1701.31576227 789.96773148 1696.20066833 C788.82890589 1692.49773851 787.61078804 1688.89498078 786.11226273 1685.31785583 C784.04473934 1680.38247743 782.52600989 1675.32026716 780.96992874 1670.20726013 C779.56241645 1665.62973361 777.92655587 1661.22550411 776.07710648 1656.80613708 C774.93061824 1653.84940426 774.02117754 1650.85582402 773.11226273 1647.81785583 C771.96989469 1644.0055346 770.76735013 1640.30383013 769.23726273 1636.63035583 C766.0955537 1629.01962661 763.6788136 1621.13635647 761.11226273 1613.31785583 C759.74184262 1609.14966411 758.36569665 1604.98340336 756.98726273 1600.81785583 C756.66274124 1599.8276947 756.33821976 1598.83753357 756.00386429 1597.81736755 C754.19018117 1592.33857151 752.2030659 1586.98283627 750.02290726 1581.64012146 C748.69469453 1578.25300097 747.64353111 1574.80452514 746.61226273 1571.31785583 C745.27262048 1566.90443322 743.89632558 1562.57658652 742.11226273 1558.31785583 C740.04383929 1553.38032892 738.52490952 1548.31576227 736.96773148 1543.20066833 C735.82890589 1539.49773851 734.61078804 1535.89498078 733.11226273 1532.31785583 C731.04383929 1527.38032892 729.52490952 1522.31576227 727.96773148 1517.20066833 C726.82890589 1513.49773851 725.61078804 1509.89498078 724.11226273 1506.31785583 C722.32798983 1502.05862375 720.95572462 1497.73041571 719.61226273 1493.31785583 C718.00881315 1488.05623322 716.23832961 1482.96774709 714.12788773 1477.88426208 C712.15972502 1472.91086633 710.56424669 1467.80297204 708.89986038 1462.72166443 C707.29168756 1457.81339735 705.67247443 1452.90883267 704.04976273 1448.00535583 C703.72137405 1447.00359314 703.39298538 1446.00183044 703.05464554 1444.9697113 C701.22318557 1439.43782398 699.22274082 1434.02778065 697.02070999 1428.63352966 C695.69286484 1425.24879136 694.64286236 1421.80226411 693.61226273 1418.31785583 C692.27262048 1413.90443322 690.89632558 1409.57658652 689.11226273 1405.31785583 C687.04383929 1400.38032892 685.52490952 1395.31576227 683.96773148 1390.20066833 C682.82890589 1386.49773851 681.61078804 1382.89498078 680.11226273 1379.31785583 C678.04383929 1374.38032892 676.52490952 1369.31576227 674.96773148 1364.20066833 C673.82890589 1360.49773851 672.61078804 1356.89498078 671.11226273 1353.31785583 C669.32798983 1349.05862375 667.95572462 1344.73041571 666.61226273 1340.31785583 C665.00881315 1335.05623322 663.23832961 1329.96774709 661.12788773 1324.88426208 C659.15972502 1319.91086633 657.56424669 1314.80297204 655.89986038 1309.72166443 C654.29168756 1304.81339735 652.67247443 1299.90883267 651.04976273 1295.00535583 C650.72137405 1294.00359314 650.39298538 1293.00183044 650.05464554 1291.9697113 C648.22318557 1286.43782398 646.22274082 1281.02778065 644.02070999 1275.63352966 C642.69286484 1272.24879136 641.64286236 1268.80226411 640.61226273 1265.31785583 C639.27262048 1260.90443322 637.89632558 1256.57658652 636.11226273 1252.31785583 C634.04383929 1247.38032892 632.52490952 1242.31576227 630.96773148 1237.20066833 C629.82890589 1233.49773851 628.61078804 1229.89498078 627.11226273 1226.31785583 C625.04383929 1221.38032892 623.52490952 1216.31576227 621.96773148 1211.20066833 C620.82890589 1207.49773851 619.61078804 1203.89498078 618.11226273 1200.31785583 C616.32798983 1196.05862375 614.95572462 1191.73041571 613.61226273 1187.31785583 C612.00794757 1182.0533929 610.23678881 1176.96221901 608.12398148 1171.87644958 C606.70308598 1168.28306522 605.5157723 1164.62129551 604.31270218 1160.95018005 C602.21404611 1154.56822041 600.00826598 1148.22502087 597.79976273 1141.88035583 C594.39210661 1132.08637306 591.0669152 1122.26870605 587.8512764 1112.40989685 C586.09412335 1107.070909 584.15202551 1101.86151172 582.02949905 1096.65769958 C580.69931728 1093.26444377 579.64535449 1089.81068988 578.61226273 1086.31785583 C577.27262048 1081.90443322 575.89632558 1077.57658652 574.11226273 1073.31785583 C572.04383929 1068.38032892 570.52490952 1063.31576227 568.96773148 1058.20066833 C567.82890589 1054.49773851 566.61078804 1050.89498078 565.11226273 1047.31785583 C563.04383929 1042.38032892 561.52490952 1037.31576227 559.96773148 1032.20066833 C558.82890589 1028.49773851 557.61078804 1024.89498078 556.11226273 1021.31785583 C554.32798983 1017.05862375 552.95572462 1012.73041571 551.61226273 1008.31785583 C550.00881315 1003.05623322 548.23832961 997.96774709 546.12788773 992.88426208 C544.15972502 987.91086633 542.56424669 982.80297204 540.89986038 977.72166443 C539.29168756 972.81339735 537.67247443 967.90883267 536.04976273 963.00535583 C535.55717972 961.50271179 535.55717972 961.50271179 535.05464554 959.9697113 C533.22318557 954.43782398 531.22274082 949.02778065 529.02070999 943.63352966 C527.69286484 940.24879136 526.64286236 936.80226411 525.61226273 933.31785583 C524.27262048 928.90443322 522.89632558 924.57658652 521.11226273 920.31785583 C519.04383929 915.38032892 517.52490952 910.31576227 515.96773148 905.20066833 C514.58185025 900.69442876 512.9712187 896.36613547 511.14741898 892.01707458 C509.52523556 887.7871548 508.24033887 883.45402085 506.95015335 879.11277771 C505.61957609 874.69947689 503.96738757 870.54558772 502.11226273 866.31785583 C501.37537903 864.34154939 500.64619938 862.36235328 499.92476273 860.38035583 C490.82407093 836.76702238 476.82593352 816.13434521 459.50923538 797.79832458 C458.18551678 796.39548824 456.87314926 794.98196628 455.56148148 793.56785583 C438.93986944 776.21479198 418.31284288 763.38596459 396.22920609 754.21336365 C393.9533662 753.25063954 391.70602236 752.23390132 389.45601273 751.21238708 C379.5199813 746.78582267 368.6560791 744.65207961 358.11226273 742.13035583 C357.04499954 741.86819275 355.97773636 741.60602966 354.87813187 741.33592224 C341.84268687 738.28991398 328.76028492 738.10882474 315.42476273 738.13035583 C314.7263829 738.13096008 314.02800308 738.13156433 313.30846024 738.13218689 C293.75753967 738.17790504 273.39252201 739.3733976 254.99531937 746.59690857 C252.18474461 747.67296552 249.30222008 748.50141125 246.42476273 749.38035583 C213.77403035 759.88022194 182.0416802 782.19125269 161.11226273 809.31785583 C160.32335648 810.29109802 159.53445023 811.26434021 158.72163773 812.26707458 C144.86022758 829.6374266 134.70949864 848.91869644 127.61226273 869.93113708 C126.02834683 874.6204175 124.28837127 879.24671621 122.54976273 883.88035583 C120.08423772 890.48890338 117.86589227 897.13296929 115.81734085 903.8813324 C114.4513264 908.3447052 112.87321817 912.65140646 111.08101273 916.95848083 C108.07400469 924.2820004 105.60210885 931.80711254 103.11226273 939.31785583 C102.5982342 940.86092269 102.08390845 942.40389055 101.56929398 943.94676208 C101.30414993 944.74235535 101.03900589 945.53794861 100.76582718 946.35765076 C100.18532241 948.09882806 99.60440492 949.8398678 99.0231514 951.58079529 C97.34561952 956.60730502 95.6762503 961.63634286 94.01851273 966.66941833 C93.66941849 967.72572449 93.32032425 968.78203064 92.9606514 969.87034607 C92.28904653 971.90288865 91.61979207 973.93620997 90.95332718 975.97044373 C89.15712071 981.39612698 87.18343906 986.69774982 85.02510452 991.98899841 C83.69652224 995.37849998 82.64419977 998.82892582 81.61226273 1002.31785583 C80.02421773 1007.54963597 78.2546278 1012.59269577 76.13960648 1017.63816833 C74.81070423 1021.10443046 73.74795277 1024.64151217 72.67476273 1028.19285583 C71.19893964 1033.07062432 69.58934354 1037.76308145 67.54976273 1042.44285583 C65.19734724 1047.85341145 63.62474481 1053.33612149 62.07320023 1059.02098083 C61.01158019 1062.66328697 59.64785495 1066.06856608 58.17866898 1069.56004333 C56.81138504 1073.09594978 55.714565 1076.69211509 54.61226273 1080.31785583 C53.02100167 1085.54568204 51.25636719 1090.58676776 49.14351273 1095.63035583 C47.53301625 1099.82740725 46.27826368 1104.12949465 44.96992874 1108.42845154 C43.56241645 1113.00597806 41.92655587 1117.41020756 40.07710648 1121.82957458 C38.93061824 1124.78630741 38.02117754 1127.77988765 37.11226273 1130.81785583 C35.95747252 1134.67764099 34.72988159 1138.41430876 33.17476273 1142.13035583 C31.37587987 1146.45472912 29.9743498 1150.84227896 28.61226273 1155.31785583 C27.02083117 1160.54563914 25.25637496 1165.58674921 23.14351273 1170.63035583 C21.79528977 1174.14390657 20.70789267 1177.71887748 19.61226273 1181.31785583 C18.02078345 1186.54562411 16.2563766 1191.5867453 14.14351273 1196.63035583 C12.79528573 1200.14391709 11.70801049 1203.71890551 10.61226273 1207.31785583 C9.00794757 1212.58231877 7.23678881 1217.67349266 5.12398148 1222.75926208 C3.70613598 1226.34493313 2.5221587 1229.99892961 1.31929398 1233.66136169 C-3.43616346 1248.0993409 -8.31055118 1262.51092679 -13.90726852 1276.64598083 C-15.24054669 1280.27929664 -16.18624313 1283.9788758 -17.14945602 1287.72410583 C-17.86749777 1290.24674985 -18.751148 1292.58721414 -19.76273727 1295.00535583 C-21.5875584 1299.37238961 -23.01313182 1303.79492664 -24.38773727 1308.31785583 C-25.9983211 1313.61091184 -27.78542005 1318.72195726 -29.92289352 1323.82957458 C-31.06938176 1326.78630741 -31.97882246 1329.77988765 -32.88773727 1332.81785583 C-34.0243157 1336.61526126 -35.22310693 1340.29100535 -36.76273727 1343.94285583 C-38.78865655 1348.80825251 -40.33223097 1353.78775609 -41.88773727 1358.81785583 C-43.6800961 1364.60838235 -45.56764149 1370.26091245 -47.90726852 1375.85691833 C-49.87126108 1380.7864614 -51.4445505 1385.85976888 -53.09574509 1390.90086365 C-54.72601184 1395.87609203 -56.36773573 1400.84748292 -58.01273727 1405.81785583 C-58.34950485 1406.84475525 -58.68627243 1407.87165466 -59.03324509 1408.92967224 C-60.77196309 1414.18108215 -62.7078162 1419.23137333 -64.88773727 1424.31785583 C-65.93412479 1427.40176128 -66.87930454 1430.51439691 -67.82523727 1433.63035583 C-69.6232845 1439.44978247 -71.52184764 1445.12107998 -73.89164352 1450.73582458 C-75.49650293 1454.89587191 -76.73462175 1459.17254074 -78.03251266 1463.43577576 C-79.41949042 1467.94571455 -81.03283557 1472.27712273 -82.85648727 1476.63035583 C-84.20471023 1480.14390657 -85.29210733 1483.71887748 -86.38773727 1487.31785583 C-87.97921655 1492.54562411 -89.7436234 1497.5867453 -91.85648727 1502.63035583 C-93.20471427 1506.14391709 -94.29198951 1509.71890551 -95.38773727 1513.31785583 C-96.99118685 1518.57947845 -98.76167039 1523.66796458 -100.87211227 1528.75144958 C-102.84027498 1533.72484534 -104.43575331 1538.83273963 -106.10013962 1543.91404724 C-107.70831244 1548.82231432 -109.32752557 1553.726879 -110.95023727 1558.63035583 C-111.27862595 1559.63211853 -111.60701462 1560.63388123 -111.94535446 1561.66600037 C-113.77681443 1567.19788769 -115.77725918 1572.60793102 -117.97929001 1578.00218201 C-119.30713321 1581.38691536 -120.35718382 1584.83343671 -121.38773727 1588.31785583 C-122.99421842 1593.61201167 -124.78559756 1598.72238141 -126.92289352 1603.82957458 C-128.06938176 1606.78630741 -128.97882246 1609.77988765 -129.88773727 1612.81785583 C-131.32601902 1617.61587384 -132.97169846 1622.22640114 -134.88383102 1626.85301208 C-138.67390248 1636.1585961 -141.76499614 1645.73816851 -144.79008102 1655.31394958 C-145.12330368 1656.36775818 -145.45652634 1657.42156677 -145.79984665 1658.50730896 C-146.48196539 1660.66800127 -147.16166429 1662.82945904 -147.83890915 1664.99168396 C-149.67355518 1670.77841914 -151.67707743 1676.41845105 -153.98368454 1682.03294373 C-155.31778992 1685.40477527 -156.35998587 1688.84291075 -157.38773727 1692.31785583 C-158.99421842 1697.61201167 -160.78559756 1702.72238141 -162.92289352 1707.82957458 C-164.06938176 1710.78630741 -164.97882246 1713.77988765 -165.88773727 1716.81785583 C-167.04252748 1720.67764099 -168.27011841 1724.41430876 -169.82523727 1728.13035583 C-171.62412013 1732.45472912 -173.0256502 1736.84227896 -174.38773727 1741.31785583 C-175.97916883 1746.54563914 -177.74362504 1751.58674921 -179.85648727 1756.63035583 C-181.20471023 1760.14390657 -182.29210733 1763.71887748 -183.38773727 1767.31785583 C-184.97921655 1772.54562411 -186.7436234 1777.5867453 -188.85648727 1782.63035583 C-190.20471427 1786.14391709 -191.29198951 1789.71890551 -192.38773727 1793.31785583 C-193.98876036 1798.57151607 -195.75345665 1803.65354521 -197.86429977 1808.72801208 C-200.14171951 1814.49110095 -201.96283669 1820.42920649 -203.88773727 1826.31785583 C-204.9042506 1829.42346089 -205.92606285 1832.5272699 -206.95023727 1835.63035583 C-207.18339645 1836.34643005 -207.41655563 1837.06250427 -207.65678024 1837.80027771 C-208.92858789 1841.65188671 -210.31448642 1845.41954435 -211.85258102 1849.17332458 C-214.00101415 1854.46769585 -215.71313045 1859.8581788 -217.38773727 1865.31785583 C-219.33369337 1871.66220584 -221.44641342 1877.83706874 -223.96390915 1883.97801208 C-225.30289876 1887.3693642 -226.35427823 1890.82378001 -227.38773727 1894.31785583 C-228.97491955 1899.54679376 -230.74380383 1904.587176 -232.85648727 1909.63035583 C-234.20471023 1913.14390657 -235.29210733 1916.71887748 -236.38773727 1920.31785583 C-237.97921655 1925.54562411 -239.7436234 1930.5867453 -241.85648727 1935.63035583 C-243.20471023 1939.14390657 -244.29210733 1942.71887748 -245.38773727 1946.31785583 C-246.97921655 1951.54562411 -248.7436234 1956.5867453 -250.85648727 1961.63035583 C-252.46698375 1965.82740725 -253.72173632 1970.12949465 -255.03007126 1974.42845154 C-256.43758355 1979.00597806 -258.07344413 1983.41020756 -259.92289352 1987.82957458 C-261.06938176 1990.78630741 -261.97882246 1993.77988765 -262.88773727 1996.81785583 C-264.04252748 2000.67764099 -265.27011841 2004.41430876 -266.82523727 2008.13035583 C-268.62412013 2012.45472912 -270.0256502 2016.84227896 -271.38773727 2021.31785583 C-272.97795653 2026.54165679 -274.7394262 2031.57957559 -276.85258102 2036.61863708 C-278.47476444 2040.84855687 -279.75966113 2045.18169082 -281.04984665 2049.52293396 C-282.00627321 2052.69523989 -283.04085391 2055.67295612 -284.35648727 2058.72410583 C-286.15820186 2062.95261965 -287.49137917 2067.23698533 -288.82523727 2071.63035583 C-290.63084136 2077.46923571 -292.52317979 2083.17712007 -294.89554977 2088.81394958 C-296.17475528 2092.0421808 -297.24878131 2095.3306043 -298.32523727 2098.63035583 C-299.9012014 2103.46129202 -301.585718 2108.21292504 -303.45023727 2112.94285583 C-305.45875555 2118.07919051 -307.14131541 2123.24392353 -308.72367477 2128.52488708 C-310.21197172 2133.37433786 -311.79152854 2138.19050679 -313.38773727 2143.00535583 C-313.67245895 2143.87225037 -313.95718063 2144.7391449 -314.25053024 2145.63230896 C-315.68273097 2149.93626414 -317.20355685 2154.16893077 -318.91898727 2158.36863708 C-320.84932074 2163.11311035 -322.40495137 2167.91806211 -323.88773727 2172.81785583 C-325.66436594 2178.57533532 -327.54727156 2184.18131674 -329.89164352 2189.73582458 C-331.49650293 2193.89587191 -332.73462175 2198.17254074 -334.03251266 2202.43577576 C-335.41949042 2206.94571455 -337.03283557 2211.27712273 -338.85648727 2215.63035583 C-340.20471023 2219.14390657 -341.29210733 2222.71887748 -342.38773727 2226.31785583 C-343.98008206 2231.5484672 -345.74519074 2236.59226289 -347.86039352 2241.63816833 C-349.18929466 2245.10442758 -350.25208309 2248.64150273 -351.32523727 2252.19285583 C-353.12678297 2258.14908588 -355.28516694 2263.80426712 -357.76664352 2269.51707458 C-359.22613382 2273.16325765 -360.176346 2276.86431224 -361.14164352 2280.66551208 C-362.13154584 2284.1845889 -363.51349947 2287.48303565 -364.91898727 2290.85301208 C-366.18537646 2294.07515553 -367.11359638 2297.36028771 -368.06571579 2300.6860199 C-368.84278554 2303.17393552 -369.75364221 2305.52779684 -370.75883102 2307.93113708 C-372.96234784 2313.36889669 -374.7286463 2318.89954613 -376.45023727 2324.50535583 C-378.32662998 2330.60883278 -380.35712031 2336.44897819 -382.88773727 2342.31785583 C-383.93514894 2345.40141623 -384.87921847 2348.51442387 -385.82523727 2351.63035583 C-387.62958694 2357.4651792 -389.51868669 2363.1701507 -391.89164352 2368.80223083 C-393.44964573 2372.73695014 -394.71938381 2376.76734131 -396.0303154 2380.78929138 C-397.2114503 2384.38221288 -398.48562826 2387.89401203 -399.95023727 2391.38035583 C-401.54579541 2395.2352243 -402.71776428 2399.10801393 -403.82523727 2403.13035583 C-405.43185986 2408.95200004 -407.43440789 2414.48391317 -409.66508102 2420.09129333 C-411.30738007 2424.42528378 -412.60243021 2428.83950656 -413.92679977 2433.27879333 C-414.77726425 2435.96847367 -415.73804462 2438.52979102 -416.82523727 2441.13035583 C-418.62412013 2445.45472912 -420.0256502 2449.84227896 -421.38773727 2454.31785583 C-422.97916883 2459.54563914 -424.74362504 2464.58674921 -426.85648727 2469.63035583 C-428.20471023 2473.14390657 -429.29210733 2476.71887748 -430.38773727 2480.31785583 C-431.97921655 2485.54562411 -433.7436234 2490.5867453 -435.85648727 2495.63035583 C-437.20471023 2499.14390657 -438.29210733 2502.71887748 -439.38773727 2506.31785583 C-440.97921655 2511.54562411 -442.7436234 2516.5867453 -444.85648727 2521.63035583 C-446.20471427 2525.14391709 -447.29198951 2528.71890551 -448.38773727 2532.31785583 C-449.98719657 2537.56638459 -451.74673017 2542.64468819 -453.86039352 2547.71238708 C-455.13998944 2550.95759801 -456.23678781 2554.2551106 -457.32523727 2557.56785583 C-457.75487098 2558.86605072 -458.18455867 2560.16422775 -458.61429977 2561.46238708 C-459.42606167 2563.91670804 -460.23264619 2566.37252628 -461.03617477 2568.82957458 C-463.95887578 2577.43094633 -467.71413676 2585.37900821 -471.90604782 2593.41307068 C-472.91400981 2595.36883278 -473.88163127 2597.34158799 -474.84867477 2599.31785583 C-490.70176082 2631.07023561 -517.56824429 2657.398355 -547.88773727 2675.31785583 C-549.16386999 2676.14193361 -550.43990568 2676.96616164 -551.71586227 2677.79051208 C-555.89727484 2680.41297307 -560.23556946 2682.43134708 -564.76273727 2684.38035583 C-565.95334763 2684.90013 -565.95334763 2684.90013 -567.16801071 2685.43040466 C-572.70094638 2687.83477234 -578.246823 2690.17757325 -583.88773727 2692.31785583 C-585.30699509 2692.89793396 -585.30699509 2692.89793396 -586.75492477 2693.48973083 C-594.35842001 2696.44360668 -601.97998295 2698.37882394 -609.95023727 2700.06785583 C-610.93073044 2700.27853699 -611.9112236 2700.48921814 -612.92142868 2700.70628357 C-625.9552829 2703.34921746 -638.99788236 2703.50438827 -652.24418259 2703.50315857 C-654.8833425 2703.50535218 -657.5220879 2703.52360059 -660.16117477 2703.54246521 C-669.59017728 2703.57467368 -678.61105111 2703.21048547 -687.88773727 2701.31785583 C-689.21901657 2701.05234924 -689.21901657 2701.05234924 -690.5771904 2700.78147888 C-717.8800594 2695.03990702 -742.22935069 2684.09721932 -765.63773727 2668.94285583 C-766.70338913 2668.25659119 -767.76904099 2667.57032654 -768.86698532 2666.86326599 C-791.29874102 2652.34521394 -813.37839265 2637.17282849 -834.88773727 2621.31785583 C-836.36286533 2620.23694601 -837.83813985 2619.15623605 -839.31351852 2618.07566833 C-851.42386993 2609.19425951 -863.41779601 2600.22964411 -875.00492477 2590.66941833 C-878.28895543 2587.9905749 -881.61367218 2585.36823672 -884.95023727 2582.75535583 C-885.54884567 2582.28621765 -886.14745407 2581.81707947 -886.76420212 2581.33372498 C-887.9342592 2580.41677901 -889.10434305 2579.4998672 -890.27445602 2578.58299255 C-896.96508317 2573.33619626 -903.52992645 2567.96597463 -910.00126266 2562.45237732 C-913.4223693 2559.5412992 -916.88569172 2556.6942265 -920.38773727 2553.88035583 C-925.76628475 2549.50685081 -930.82226658 2544.82967305 -935.88773727 2540.10301208 C-938.85186021 2537.33939248 -941.88349344 2534.66286876 -944.94633102 2532.00926208 C-951.9143863 2525.93850166 -958.72445637 2519.68193915 -965.51957321 2513.41893005 C-967.14108699 2511.92444602 -968.76352156 2510.43117457 -970.39263535 2508.94497681 C-982.62674824 2497.78328098 -994.3018906 2486.05799573 -1005.99711227 2474.33885193 C-1008.83875799 2471.49146137 -1011.6849389 2468.64865272 -1014.53242874 2465.80710793 C-1016.75631646 2463.58685264 -1018.97779408 2461.36419816 -1021.19857407 2459.14083481 C-1022.24707636 2458.09167317 -1023.29630039 2457.04323222 -1024.34630966 2455.99557877 C-1029.55703277 2450.79400564 -1034.68008676 2445.56132775 -1039.4735527 2439.96784973 C-1041.19922209 2437.95443223 -1042.9979193 2436.02038873 -1044.82523727 2434.09910583 C-1045.82683884 2433.04143005 -1045.82683884 2433.04143005 -1046.84867477 2431.96238708 C-1047.5215654 2431.25469177 -1048.19445602 2430.54699646 -1048.88773727 2429.81785583 C-1053.47358954 2424.99480432 -1057.97764187 2420.12813336 -1062.33793259 2415.09959412 C-1064.27798568 2412.86920541 -1066.2682403 2410.6870757 -1068.26273727 2408.50535583 C-1072.11796113 2404.23475432 -1075.76356243 2399.83011915 -1079.37992477 2395.35691833 C-1082.27605166 2391.8472817 -1085.26442055 2388.4275574 -1088.26273727 2385.00535583 C-1093.49696647 2379.01630692 -1098.46758536 2372.86781802 -1103.34086227 2366.58348083 C-1105.6404454 2363.61995792 -1108.00125921 2360.71209519 -1110.38773727 2357.81785583 C-1115.13428791 2352.0463863 -1119.75027214 2346.17880311 -1124.34720993 2340.28807068 C-1125.97443675 2338.20697394 -1127.60862536 2336.13146158 -1129.24320602 2334.05613708 C-1136.83332662 2324.39279893 -1144.14164251 2314.56510067 -1151.27885056 2304.5634613 C-1152.88691027 2302.31901012 -1154.50791559 2300.08455538 -1156.13383102 2297.85301208 C-1171.4252419 2276.85314446 -1186.07661967 2255.3213949 -1199.88773727 2233.31785583 C-1200.97090693 2231.63025077 -1202.05424866 2229.94275614 -1203.13773727 2228.25535583 C-1207.72102863 2221.05598357 -1212.13684309 2213.7537664 -1216.5771904 2206.46580505 C-1218.40239441 2203.47434736 -1220.23782931 2200.4893353 -1222.07523727 2197.50535583 C-1222.70558884 2196.48055115 -1223.3359404 2195.45574646 -1223.98539352 2194.39988708 C-1225.3005856 2192.26911389 -1226.62125806 2190.1417172 -1227.94633102 2188.01707458 C-1231.49231067 2182.31267255 -1234.89012403 2176.58262783 -1238.05961227 2170.66160583 C-1240.60324575 2166.00914802 -1243.24897621 2161.41685086 -1245.88773727 2156.81785583 C-1253.30122274 2143.87015392 -1260.21897338 2130.77849019 -1266.83207321 2117.40867615 C-1267.76538778 2115.52328197 -1268.70086618 2113.6389852 -1269.63773727 2111.75535583 C-1269.95653854 2111.11380554 -1270.27533981 2110.47225525 -1270.60380173 2109.81126404 C-1272.62574945 2105.76785522 -1274.70172156 2101.75651922 -1276.81351852 2097.75926208 C-1281.67429554 2088.5575528 -1286.4700773 2079.41213863 -1290.51688766 2069.81956482 C-1292.31024973 2065.57716157 -1294.28369564 2061.47696671 -1296.38773727 2057.38035583 C-1299.43524453 2051.40888892 -1302.03357379 2045.32587479 -1304.4912529 2039.08958435 C-1306.01671289 2035.25545534 -1307.73891593 2031.85263782 -1309.88773727 2028.31785583 C-1310.7014117 2026.37693147 -1311.46953207 2024.41651319 -1312.20023727 2022.44285583 C-1315.86508989 2012.70671123 -1319.62276416 2003.01104723 -1323.89945602 1993.52488708 C-1327.44478226 1985.60745894 -1330.5406705 1977.58369863 -1333.36893845 1969.38597107 C-1335.94020676 1962.01012745 -1338.81490999 1954.75844333 -1341.72855759 1947.51194763 C-1343.79751435 1942.31540271 -1345.57443295 1937.14039236 -1347.12333298 1931.76756287 C-1347.8963594 1929.29022429 -1348.80810312 1926.92489959 -1349.79398727 1924.52488708 C-1352.28897861 1918.44986778 -1354.33171602 1912.24008239 -1356.38773727 1906.00535583 C-1356.95428024 1904.30476013 -1356.95428024 1904.30476013 -1357.53226852 1902.56980896 C-1360.09202105 1894.85096758 -1362.5214106 1887.09793528 -1364.88773727 1879.31785583 C-1365.37328474 1877.740993 -1365.85894918 1876.16416618 -1366.34476852 1874.58738708 C-1369.54014359 1864.11997931 -1372.46859875 1853.59612796 -1375.2815361 1843.01976013 C-1377.0712735 1836.30245963 -1378.94041446 1829.61595102 -1380.88773727 1822.94285583 C-1388.72759587 1795.8466066 -1394.91235857 1768.25190837 -1400.12992477 1740.53977966 C-1401.33657553 1734.13189606 -1402.62854388 1727.75202918 -1404.01273727 1721.38035583 C-1405.42070853 1714.82560465 -1406.60004199 1708.26945611 -1407.60087204 1701.64085388 C-1408.45683235 1695.98789036 -1409.37994407 1690.34894879 -1410.33695602 1684.71238708 C-1410.53391068 1683.54846184 -1410.53391068 1683.54846184 -1410.73484421 1682.36102295 C-1411.53554176 1677.63003465 -1411.53554176 1677.63003465 -1412.34421921 1672.90040588 C-1413.97346191 1663.41328733 -1415.34912416 1653.94312007 -1416.42069626 1644.37693787 C-1416.9837614 1639.38048414 -1417.68743019 1634.40530685 -1418.38431931 1629.42601013 C-1420.02122868 1617.69376783 -1421.40413122 1605.99782085 -1422.20414352 1594.17723083 C-1422.58871915 1588.58126308 -1423.15095618 1583.03183193 -1423.84476852 1577.46629333 C-1425.0015753 1568.04328098 -1425.65745829 1558.59983817 -1426.26542282 1549.12767029 C-1426.4484926 1546.28247087 -1426.63926101 1543.43786682 -1426.83109665 1540.59324646 C-1428.26018549 1519.0465815 -1429.04764794 1497.53266543 -1429.09086227 1475.93894958 C-1429.09775922 1473.76708968 -1429.10470842 1471.59522994 -1429.11170578 1469.42337036 C-1429.13070018 1462.53403037 -1429.13536168 1455.64471869 -1429.13773727 1448.75535583 C-1429.13862099 1447.58588158 -1429.1395047 1446.41640732 -1429.14041519 1445.21149445 C-1429.16687848 1405.77705182 -1428.92400002 1366.44838238 -1424.61834335 1327.20359802 C-1424.0408209 1321.9162294 -1423.55593695 1316.62826871 -1423.14164352 1311.32566833 C-1423.08473846 1310.5973732 -1423.0278334 1309.86907806 -1422.96920395 1309.11871338 C-1422.8546187 1307.64502457 -1422.74029574 1306.17131534 -1422.62623215 1304.69758606 C-1421.60982084 1291.67599485 -1420.33761564 1278.77693526 -1418.27640915 1265.87327576 C-1417.16868473 1258.59026604 -1416.27033573 1251.2749942 -1415.32401657 1243.96946716 C-1410.94288851 1210.16125892 -1410.94288851 1210.16125892 -1408.32883835 1198.28385925 C-1407.17122711 1192.94127395 -1406.31042954 1187.60572371 -1405.55961227 1182.19285583 C-1403.91142615 1170.82584109 -1401.63474139 1159.61524624 -1399.26273727 1148.38035583 C-1398.93858841 1146.83302765 -1398.93858841 1146.83302765 -1398.60789108 1145.25444031 C-1395.62075961 1131.01580769 -1392.46167061 1116.82690467 -1389.01273727 1102.69285583 C-1388.83200668 1101.95092987 -1388.65127609 1101.20900391 -1388.46506882 1100.44459534 C-1386.40199998 1092.01545513 -1384.1636392 1083.65433611 -1381.74515915 1075.31980896 C-1380.75589866 1071.85627054 -1379.89813629 1068.38679744 -1379.07523727 1064.88035583 C-1377.20171812 1057.13958461 -1374.87699418 1049.55295609 -1372.52299118 1041.94676208 C-1370.72302961 1036.11630585 -1369.02916192 1030.27406561 -1367.45023727 1024.38035583 C-1365.28757309 1016.39006148 -1362.70261169 1008.56313793 -1360.04911423 1000.72386169 C-1357.14421632 992.14006221 -1354.37748268 983.51685325 -1351.6775322 974.86643982 C-1349.94732942 969.38617802 -1348.03609468 964.05137684 -1345.85648727 958.73435974 C-1344.26712918 954.76977646 -1342.89803524 950.73226702 -1341.51273727 946.69285583 C-1337.26887579 934.44861024 -1332.75340502 922.329412 -1327.88773727 910.31785583 C-1327.16734556 908.50985324 -1326.44699306 906.70183492 -1325.72733688 904.89353943 C-1323.2371508 898.64264819 -1320.70317877 892.41284067 -1318.09867477 886.20848083 C-1317.28395265 884.26366027 -1316.47678394 882.31565997 -1315.67679977 880.36473083 C-1313.08213431 874.05159575 -1310.30809674 867.84909075 -1307.41898727 861.66551208 C-1305.86241279 858.26249082 -1304.39958722 854.83027126 -1302.95023727 851.38035583 C-1300.46379981 845.52498885 -1297.68633226 839.87588827 -1294.80179977 834.20848083 C-1292.54003696 829.68495521 -1290.50255303 825.06417259 -1288.45023727 820.44285583 C-1284.84489937 812.34735073 -1281.01903143 804.40591197 -1276.99613571 796.51121521 C-1275.76982858 794.08453167 -1274.56575862 791.64755981 -1273.36429977 789.20848083 C-1268.60529419 779.56611895 -1263.72143874 770.01008692 -1258.57523727 760.56785583 C-1258.09602829 759.68790955 -1257.61681931 758.80796326 -1257.12308884 757.90135193 C-1254.2622681 752.69545011 -1251.27258857 747.58377529 -1248.19804001 742.50144958 C-1246.7563177 740.09884769 -1245.39485479 737.66452039 -1244.07523727 735.19285583 C-1231.55126305 712.06674487 -1218.12588575 689.42880396 -1203.88773727 667.31785583 C-1203.43092575 666.60516541 -1202.97411423 665.89247498 -1202.50345993 665.15818787 C-1185.61231314 638.80656183 -1168.27265648 612.55621566 -1149.36039352 587.60301208 C-1146.80049743 584.21810541 -1144.29209166 580.79596507 -1141.78104782 577.3747406 C-1135.58804503 568.93709432 -1129.3243823 560.57129583 -1122.88773727 552.31785583 C-1121.99708043 551.16814092 -1121.10645644 550.01840056 -1120.21586227 548.86863708 C-1114.80280311 541.90528699 -1109.23158849 535.10706687 -1103.50492477 528.39988708 C-1101.09277203 525.57102571 -1098.7335373 522.70210462 -1096.38773727 519.81785583 C-1091.3048392 513.57934327 -1086.10592603 507.44317717 -1080.88773727 501.31785583 C-1080.38806442 500.7303656 -1079.88839157 500.14287537 -1079.37357712 499.5375824 C-1072.10447802 490.99575574 -1064.72166365 482.57928881 -1057.13383102 474.31785583 C-1056.65695847 473.79852478 -1056.18008591 473.27919373 -1055.68876266 472.74412537 C-1054.3478499 471.28544368 -1053.00459111 469.82891961 -1051.66117477 468.37254333 C-1049.60776284 466.12954409 -1047.60187575 463.84979327 -1045.6072197 461.5544281 C-1032.42342679 446.47767238 -1018.14703178 432.41900206 -1003.97880173 418.27854919 C-1001.0182165 415.32371367 -998.06221888 412.36433541 -995.10748005 409.40365505 C-992.79886886 407.09141324 -990.48786054 404.78157907 -988.17614174 402.47244453 C-987.08511367 401.38207606 -985.99480702 400.29098517 -984.90528679 399.19911003 C-979.60562407 393.89048482 -974.29994692 388.63673387 -968.57070541 383.78674316 C-966.75821473 382.20480911 -965.07177224 380.53520389 -963.38773727 378.81785583 C-960.39979685 375.78270191 -957.27102977 372.97506208 -954.04789352 370.19285583 C-951.67818854 368.13596905 -949.34346471 366.04379324 -947.01273727 363.94285583 C-946.16840134 363.18230896 -945.3240654 362.42176208 -944.45414352 361.63816833 C-942.7707598 360.11620497 -941.09093893 358.59028957 -939.41508102 357.06004333 C-934.37777986 352.47777571 -929.22186501 348.10646755 -923.92679977 343.82566833 C-920.41716577 340.92954361 -916.99738345 337.9412326 -913.57523727 334.94285583 C-908.18342345 330.22903814 -902.67752978 325.72057941 -897.01298141 321.33958435 C-893.08337143 318.29047248 -889.27988854 315.12722075 -885.51273727 311.88035583 C-879.56135599 306.77397983 -873.34734771 302.0776743 -867.04789352 297.41160583 C-862.85258439 294.30382337 -858.71289952 291.12674535 -854.57523727 287.94285583 C-833.10004758 271.47714674 -811.00882868 255.94235254 -788.47831345 240.95799255 C-785.82015121 239.18947199 -783.16533748 237.41600626 -780.51078415 235.64207458 C-765.72521979 225.78071638 -750.80777191 216.12440939 -735.51273727 207.06785583 C-730.1688938 203.88583293 -724.84536473 200.68370773 -719.57523727 197.38035583 C-709.86541781 191.37724123 -699.84693124 185.89276329 -689.88773727 180.31785583 C-688.38767062 179.47422434 -686.88766457 178.63048508 -685.38773727 177.78660583 C-666.06299588 166.94660915 -646.5178627 156.53830833 -626.70023727 146.63035583 C-626.02128403 146.29042603 -625.34233078 145.95049622 -624.64280319 145.6002655 C-618.18404784 142.37137875 -611.72311224 139.1848028 -605.0994072 136.3044281 C-601.44845059 134.67582498 -597.86699071 132.90513384 -594.27274704 131.15574646 C-576.66490679 122.58836184 -558.78238899 114.76981207 -540.45023727 107.88035583 C-536.3757344 106.32385766 -532.39857537 104.67009091 -528.45023727 102.81785583 C-523.14152431 100.34562308 -517.69651913 98.42797561 -512.16898727 96.50535583 C-509.45985673 95.52490859 -506.87340914 94.46610221 -504.26273727 93.25535583 C-499.91615615 91.24425114 -495.44334494 89.78595419 -490.87992477 88.34519958 C-487.81996261 87.33981704 -487.81996261 87.33981704 -484.68510056 85.91844177 C-480.9075336 84.28717333 -477.04702214 82.95832704 -473.13773727 81.68113708 C-472.41079163 81.44063126 -471.68384598 81.20012543 -470.93487167 80.95233154 C-468.58667925 80.17573139 -466.23721647 79.40305326 -463.88773727 78.63035583 C-460.62528256 77.55314524 -457.36369436 76.47333882 -454.10258102 75.39207458 C-453.30126251 75.12648743 -452.499944 74.86090027 -451.67434311 74.58726501 C-445.2389725 72.44820673 -438.84059824 70.2126994 -432.45023727 67.94285583 C-423.76021523 64.8749677 -414.99730377 62.2545243 -406.11820602 59.79441833 C-401.84048179 58.60391587 -397.606256 57.30503812 -393.37211227 55.96897888 C-339.62196798 39.09838809 -283.28232819 26.31848696 -227.47806931 18.69432068 C-223.79971765 18.15972895 -220.15821702 17.47749476 -216.51273727 16.75535583 C-207.02693771 14.90053424 -197.46349757 13.61351896 -187.88773727 12.31785583 C-186.75392624 12.16316833 -185.6201152 12.00848083 -184.45194626 11.84910583 C-160.43296805 8.60274535 -136.35518572 6.16419597 -112.20023727 4.19285583 C-111.24184952 4.11263184 -110.28346176 4.03240784 -109.29603195 3.94975281 C-72.88989511 0.92483888 -36.52062035 -0.06292309 0 0 Z " fill="#F4F4F4" transform="translate(4222.88773727417,2325.682144165039)"/>
<path d="M0 0 C0.93972656 0.24621094 1.87945313 0.49242188 2.84765625 0.74609375 C9.46749407 2.60300547 15.69610854 5.28023596 22 8 C23.19367188 8.48082031 24.38734375 8.96164062 25.6171875 9.45703125 C42.11924995 16.20069293 57.31074649 25.60678393 71 37 C71.56380371 37.46905762 72.12760742 37.93811523 72.70849609 38.42138672 C80.10071946 44.59956624 87.26474283 51.00954 94.3359375 57.55078125 C96.53090777 59.56873779 98.7466621 61.54803445 101 63.5 C104.39050844 66.43844065 107.69966982 69.46116302 111 72.5 C114.95859723 76.1441694 118.95176832 79.73913779 123.015625 83.265625 C127.9253472 87.55679952 132.73874818 91.95802108 137.578125 96.328125 C141.3430085 99.72344938 145.11193551 103.11058342 148.9375 106.4375 C153.13442081 110.09178862 157.2365276 113.84744973 161.34765625 117.59765625 C163.52460996 119.56941844 165.71838674 121.51365337 167.9375 123.4375 C171.3468858 126.3988351 174.6779431 129.44152486 178 132.5 C181.95862186 136.14414329 185.9517676 139.73913717 190.015625 143.265625 C194.9253472 147.55679952 199.73874818 151.95802108 204.578125 156.328125 C208.3430085 159.72344938 212.11193551 163.11058342 215.9375 166.4375 C220.13303221 170.09057956 224.23373553 173.84505549 228.34375 177.59375 C231.16257326 180.14727225 234.01948077 182.65089056 236.89453125 185.140625 C240.45223446 188.28249277 243.91460842 191.52967847 247.38671875 194.765625 C249.82227324 196.84804229 252.2563413 198.36863537 255 200 C256.20797864 201.43651514 257.41266131 202.8764382 258.578125 204.34765625 C260.702437 206.81629355 263.15263622 208.83740803 265.625 210.94921875 C270.52453754 215.17990495 275.25837317 219.5942384 280 224 C280.9590625 224.87591797 280.9590625 224.87591797 281.9375 225.76953125 C300.40241531 243.30232344 315.53142476 268.36902491 323.69140625 292.3125 C324.71292618 295.19105169 325.81421949 297.9731919 326.98828125 300.7890625 C329.04610592 305.89142598 330.41313533 311.01631691 331.625 316.375 C331.94355957 317.75353149 331.94355957 317.75353149 332.26855469 319.15991211 C339.82353059 352.33445553 340.92597171 393.08179033 327.7421875 425.08984375 C326.88391203 427.29877379 326.26085388 429.52985603 325.625 431.8125 C323.94682372 437.48387521 321.57404428 442.68433043 319 448 C318.72027344 448.59055176 318.44054688 449.18110352 318.15234375 449.78955078 C308.33211802 470.48748325 295.80943465 488.4636948 280 505 C278.74703125 506.31484375 278.74703125 506.31484375 277.46875 507.65625 C267.94376918 517.42236958 257.35058334 525.48225582 246 533 C244.99453125 533.66902344 243.9890625 534.33804688 242.953125 535.02734375 C228.89507913 544.03662441 213.32163493 550.46389076 198 557 C196.95851807 557.44545166 196.95851807 557.44545166 195.89599609 557.89990234 C176.50253269 566.17765346 157.03365362 574.34055652 137.18359375 581.46484375 C134.15464476 582.55804153 131.16491921 583.72617703 128.1796875 584.93359375 C122.72875924 587.13054781 117.21966534 589.14289447 111.6875 591.125 C110.62370117 591.5068042 109.55990234 591.8886084 108.46386719 592.28198242 C99.90925628 595.34047247 91.33515705 598.34107775 82.75 601.3125 C81.57397217 601.72064941 80.39794434 602.12879883 79.1862793 602.54931641 C71.5037633 605.19546202 63.77943869 607.65515617 56 610 C55.15663086 610.256604 54.31326172 610.51320801 53.44433594 610.77758789 C36.80080801 615.8373725 20.08150011 620.62406894 3.3125 625.25 C2.42836426 625.49621094 1.54422852 625.74242188 0.63330078 625.99609375 C-3.66938672 627.17406529 -7.94845145 628.21406775 -12.33203125 629.046875 C-15.77159857 629.70411288 -18.76864298 630.63181786 -22 632 C-24.09503185 632.49842588 -26.20071853 632.95314001 -28.3125 633.375 C-33.54162608 634.45463187 -38.706385 635.66315808 -43.875 637 C-49.95671809 638.56060572 -56.05006035 639.81698862 -62.22802734 640.93017578 C-66.1804679 641.64626048 -70.09176145 642.44841099 -74 643.375 C-90.50640186 647.25766349 -107.07571407 650.44510804 -123.83203125 653.03125 C-129.82027697 653.95817053 -135.78450221 655.00035162 -141.75 656.0625 C-152.46937946 657.95356464 -163.21417623 659.54109479 -174 661 C-175.44802002 661.19940186 -175.44802002 661.19940186 -176.92529297 661.40283203 C-187.15190448 662.80876288 -197.317224 664.14568014 -207.62646484 664.73876953 C-210.78478965 664.98333514 -213.84192627 665.40307179 -216.96875 665.90234375 C-234.8667215 668.51425149 -253.04030098 669.43687147 -271.06762695 670.7800293 C-273.65551942 670.97415894 -276.24283882 671.17434956 -278.83007812 671.37695312 C-302.67787183 673.21142435 -326.58054171 673.23365637 -350.48538589 673.30326843 C-353.09383566 673.31239101 -355.70221782 673.32644824 -358.31063843 673.3416748 C-380.59292011 673.46039145 -402.42433872 673.44328918 -424 667 C-424.71397949 666.78972168 -425.42795898 666.57944336 -426.16357422 666.36279297 C-435.7470886 663.51997678 -445.05423144 660.52142721 -454 656 C-454.8811145 655.56337036 -454.8811145 655.56337036 -455.7800293 655.11791992 C-475.72487295 645.22244391 -492.95259096 633.47835198 -509 618 C-509.89847656 617.1646875 -510.79695313 616.329375 -511.72265625 615.46875 C-522.88452683 604.80474703 -532.07855383 592.21641815 -540 579 C-540.49628906 578.22011719 -540.99257812 577.44023437 -541.50390625 576.63671875 C-548.37075333 565.68203581 -553.28562 553.81273382 -557.66015625 541.6875 C-558.44468611 539.52832743 -559.25385579 537.37730148 -560.12109375 535.25 C-563.48241284 526.87939993 -564.95144307 518.09333852 -566.58154297 509.25830078 C-566.92824825 507.38722504 -567.29199033 505.51931532 -567.66015625 503.65234375 C-574.05428578 470.73441767 -569.70453262 435.25745339 -558 404 C-557.66742187 403.10152344 -557.33484375 402.20304687 -556.9921875 401.27734375 C-543.41027713 366.75269746 -519.05656035 338.13242638 -490.95703125 314.43359375 C-483.67244894 308.26235719 -476.60153974 301.91896391 -469.68164062 295.33984375 C-465.80380575 291.65810166 -461.85503855 288.08368207 -457.81689453 284.57836914 C-455.5624791 282.61991768 -453.34122477 280.62650403 -451.125 278.625 C-450.28453125 277.86703125 -449.4440625 277.1090625 -448.578125 276.328125 C-447.72734375 275.55984375 -446.8765625 274.7915625 -446 274 C-436.51127959 265.43139793 -436.51127959 265.43139793 -432.0625 261.5625 C-428.83440488 258.75177475 -425.66261557 255.884201 -422.5 253 C-418.71337002 249.54671847 -414.8952368 246.13900949 -411.02734375 242.77734375 C-407.79598522 239.94445718 -404.61531919 237.05556133 -401.42578125 234.17578125 C-399.36297212 232.32556437 -397.2828763 230.50055191 -395.1875 228.6875 C-391.55807653 225.52923901 -388.02772546 222.27065239 -384.5 219 C-380.36852467 215.16959432 -376.20890553 211.38737523 -371.94921875 207.69921875 C-367.91905909 204.18595331 -363.96793932 200.58316944 -360 197 C-350.51127959 188.43139793 -350.51127959 188.43139793 -346.0625 184.5625 C-341.86696779 180.90942044 -337.76626447 177.15494451 -333.65625 173.40625 C-330.83277331 170.84851229 -327.96943998 168.34230031 -325.09375 165.84375 C-321.5718753 162.74239765 -318.11922978 159.56486667 -314.65234375 156.40234375 C-312.47539004 154.43058156 -310.28161326 152.48634663 -308.0625 150.5625 C-304.6531142 147.6011649 -301.3220569 144.55847514 -298 141.5 C-294.04408354 137.85834719 -290.05438449 134.26500564 -285.9921875 130.7421875 C-283.63979365 128.68499601 -281.31965034 126.59403085 -279 124.5 C-276.04130249 121.82951656 -273.07073528 119.17701942 -270.0625 116.5625 C-265.86557919 112.90821138 -261.7634724 109.15255027 -257.65234375 105.40234375 C-255.47539004 103.43058156 -253.28161326 101.48634663 -251.0625 99.5625 C-247.6531142 96.6011649 -244.3220569 93.55847514 -241 90.5 C-237.04137814 86.85585671 -233.0482324 83.26086283 -228.984375 79.734375 C-224.94626738 76.20500535 -220.98025811 72.59429369 -217 69 C-211.73627401 64.24669593 -206.460845 59.51315883 -201.10546875 54.86328125 C-198.65832431 52.69762652 -196.27148483 50.47155893 -193.875 48.25 C-140.67294589 -0.06242774 -69.78262094 -18.55361396 0 0 Z " fill="#F4F4F4" transform="translate(4593,4547)"/>
<path d="M0 0 C0.66 0.33 1.32 0.66 2 1 C-7.37159553 10.54443233 -7.37159553 10.54443233 -12.0625 14.5625 C-19.316323 20.79259798 -25.82388352 27.71178538 -32 35 C-32.66 34.67 -33.32 34.34 -34 34 C-12.2227806 10.58185184 -12.2227806 10.58185184 -1 1 C-0.67 0.67 -0.34 0.34 0 0 Z " fill="#EED5D7" transform="translate(4100,4863)"/>
</svg>
